<?xml version="1.0" standalone="no"?><!DOCTYPE svg PUBLIC "-//W3C//DTD SVG 1.1//EN" "http://www.w3.org/Graphics/SVG/1.1/DTD/svg11.dtd"><svg t="1597678140312" class="icon" viewBox="0 0 1024 1024" version="1.1" xmlns="http://www.w3.org/2000/svg" p-id="16149" xmlns:xlink="http://www.w3.org/1999/xlink" width="200" height="200"><defs><style type="text/css"></style></defs><path d="M224.256 919.552a279.552 60.416 0 1 0 559.104 0 279.552 60.416 0 1 0-559.104 0Z" fill="#E4E3E2" p-id="16150"></path><path d="M198.656 577.536m-69.632 0a69.632 69.632 0 1 0 139.264 0 69.632 69.632 0 1 0-139.264 0Z" fill="#F2C2B3" p-id="16151"></path><path d="M198.656 514.048c34.816 0 62.464 27.648 62.464 62.464s-27.648 62.464-62.464 62.464c-34.816 0-62.464-27.648-62.464-62.464s27.648-62.464 62.464-62.464m0-13.312c-41.984 0-75.776 33.792-75.776 75.776 0 41.984 33.792 75.776 75.776 75.776s75.776-33.792 75.776-75.776c0-40.96-33.792-75.776-75.776-75.776z" fill="#2B2F5A" p-id="16152"></path><path d="M818.176 577.536m-69.632 0a69.632 69.632 0 1 0 139.264 0 69.632 69.632 0 1 0-139.264 0Z" fill="#F2C2B3" p-id="16153"></path><path d="M818.176 514.048c34.816 0 62.464 27.648 62.464 62.464s-27.648 62.464-62.464 62.464c-34.816 0-62.464-27.648-62.464-62.464s27.648-62.464 62.464-62.464m0-13.312c-41.984 0-75.776 33.792-75.776 75.776 0 41.984 33.792 75.776 75.776 75.776 41.984 0 75.776-33.792 75.776-75.776 1.024-40.96-33.792-75.776-75.776-75.776z" fill="#2B2F5A" p-id="16154"></path><path d="M818.176 514.048c-22.528 0-43.008 12.288-53.248 30.72 9.216-6.144 20.48-9.216 32.768-9.216 34.816 0 62.464 27.648 62.464 62.464 0 12.288-3.072 22.528-9.216 32.768 18.432-11.264 30.72-30.72 30.72-53.248 0-34.816-28.672-63.488-63.488-63.488zM198.656 514.048c22.528 0 43.008 12.288 53.248 30.72-9.216-6.144-20.48-9.216-32.768-9.216-34.816 0-62.464 27.648-62.464 62.464 0 12.288 3.072 22.528 9.216 32.768-18.432-11.264-30.72-30.72-30.72-53.248 1.024-34.816 28.672-63.488 63.488-63.488z" fill="#E4B4A4" p-id="16155"></path><path d="M508.928 904.192c-169.984 0-308.224-138.24-308.224-308.224V532.48c0-169.984 138.24-308.224 308.224-308.224S817.152 362.496 817.152 532.48v63.488c0 168.96-138.24 308.224-308.224 308.224z" fill="#CACFE5" p-id="16156"></path><path d="M508.928 229.376c165.888 0 302.08 136.192 302.08 302.08v63.488c0 165.888-136.192 302.08-302.08 302.08S206.848 760.832 206.848 594.944v-63.488c0-166.912 135.168-302.08 302.08-302.08m0-13.312c-174.08 0-315.392 141.312-315.392 315.392v63.488c0 174.08 141.312 315.392 315.392 315.392s315.392-141.312 315.392-315.392v-63.488c0-174.08-142.336-315.392-315.392-315.392z" fill="#2B2F5A" p-id="16157"></path><path d="M508.928 799.744c-160.768 0-292.864-126.976-301.056-284.672V594.944c0 165.888 136.192 302.08 302.08 302.08s302.08-136.192 302.08-302.08v-63.488-16.384c-11.264 157.696-143.36 284.672-303.104 284.672z" fill="#EFEEF7" p-id="16158"></path><path d="M242.688 346.112c-2.048 0-4.096-1.024-5.12-3.072-1.024-2.048-1.024-4.096-1.024-6.144 5.12-12.288 11.264-24.576 17.408-35.84 8.192-15.36 18.432-29.696 28.672-43.008 7.168-9.216 15.36-19.456 24.576-28.672 14.336-15.36 29.696-29.696 47.104-43.008 18.432-14.336 37.888-27.648 58.368-38.912 14.336-8.192 29.696-16.384 45.056-22.528 28.672-12.288 47.104-18.432 48.128-18.432h4.096c1.024 0 19.456 6.144 48.128 18.432 15.36 7.168 30.72 14.336 45.056 22.528 20.48 11.264 39.936 24.576 57.344 38.912 17.408 13.312 33.792 27.648 47.104 43.008 8.192 9.216 16.384 18.432 24.576 28.672 11.264 14.336 20.48 28.672 28.672 43.008 6.144 11.264 12.288 23.552 17.408 35.84 1.024 2.048 1.024 4.096-1.024 6.144-1.024 2.048-3.072 3.072-5.12 3.072H242.688z" fill="#DC2834" p-id="16159"></path><path d="M508.928 112.64s18.432 5.12 47.104 18.432c13.312 6.144 27.648 13.312 44.032 22.528 18.432 10.24 37.888 23.552 57.344 37.888 15.36 12.288 31.744 26.624 47.104 41.984l24.576 27.648c10.24 13.312 19.456 27.648 28.672 41.984 6.144 11.264 12.288 22.528 17.408 34.816h-532.48c5.12-12.288 11.264-23.552 17.408-34.816 9.216-15.36 18.432-29.696 28.672-41.984 8.192-10.24 16.384-19.456 24.576-27.648 15.36-16.384 30.72-29.696 47.104-41.984 19.456-15.36 38.912-27.648 57.344-37.888 16.384-9.216 30.72-16.384 44.032-22.528 27.648-12.288 47.104-18.432 47.104-18.432m0-13.312c-1.024 0-2.048 0-4.096 1.024-1.024 0-20.48 6.144-49.152 18.432-15.36 7.168-30.72 14.336-45.056 23.552-20.48 12.288-40.96 25.6-58.368 38.912-17.408 13.312-33.792 28.672-48.128 44.032-9.216 9.216-17.408 19.456-24.576 28.672-11.264 14.336-20.48 28.672-29.696 44.032-6.144 11.264-12.288 23.552-18.432 35.84-2.048 4.096-1.024 9.216 1.024 12.288 2.048 4.096 6.144 6.144 11.264 6.144h530.432c4.096 0 8.192-2.048 11.264-6.144 2.048-4.096 3.072-8.192 1.024-12.288-5.12-12.288-11.264-24.576-18.432-35.84-8.192-15.36-18.432-29.696-29.696-44.032-8.192-10.24-16.384-19.456-25.6-28.672-14.336-15.36-30.72-29.696-48.128-44.032-18.432-14.336-37.888-27.648-58.368-38.912-14.336-8.192-29.696-16.384-45.056-23.552-28.672-12.288-48.128-18.432-49.152-18.432-1.024-1.024-2.048-1.024-3.072-1.024z" fill="#2B2F5A" p-id="16160"></path><path d="M261.12 338.944c9.216-15.36 18.432-29.696 28.672-41.984 8.192-10.24 16.384-19.456 24.576-27.648 15.36-16.384 30.72-29.696 47.104-41.984 19.456-15.36 38.912-27.648 57.344-37.888 16.384-9.216 30.72-16.384 44.032-22.528 28.672-12.288 47.104-18.432 47.104-18.432s18.432 5.12 47.104 18.432c13.312 6.144 27.648 13.312 44.032 22.528 18.432 10.24 37.888 23.552 57.344 37.888 15.36 12.288 31.744 26.624 47.104 41.984l24.576 27.648c10.24 13.312 19.456 27.648 28.672 41.984v1.024h17.408c-5.12-12.288-11.264-23.552-17.408-34.816-9.216-15.36-18.432-29.696-28.672-41.984-8.192-10.24-16.384-19.456-24.576-27.648-15.36-16.384-30.72-29.696-47.104-41.984-19.456-15.36-38.912-27.648-57.344-37.888-16.384-9.216-30.72-16.384-44.032-22.528-28.672-12.288-47.104-18.432-47.104-18.432s-18.432 5.12-47.104 18.432c-13.312 6.144-27.648 13.312-44.032 22.528-18.432 10.24-37.888 23.552-57.344 37.888-15.36 12.288-31.744 26.624-47.104 41.984l-24.576 27.648c-10.24 13.312-19.456 27.648-28.672 41.984-6.144 11.264-12.288 22.528-17.408 34.816l17.408-1.024c-1.024 1.024-1.024 0 0 0z" fill="#E95865" p-id="16161"></path><path d="M752.64 297.984H264.192c-1.024 2.048-3.072 4.096-4.096 7.168-6.144 11.264-12.288 22.528-17.408 34.816h530.432c-5.12-12.288-11.264-23.552-17.408-34.816-1.024-2.048-2.048-4.096-3.072-7.168z" fill="#B82125" opacity=".75" p-id="16162"></path><path d="M508.928 172.032c-24.576 0-46.08-15.36-53.248-38.912-2.048-5.12-3.072-11.264-3.072-17.408 0-30.72 25.6-56.32 56.32-56.32s56.32 25.6 56.32 56.32c0 6.144-1.024 11.264-3.072 17.408-8.192 23.552-28.672 38.912-53.248 38.912z" fill="#0C965E" p-id="16163"></path><path d="M508.928 66.56c27.648 0 49.152 22.528 49.152 49.152 0 5.12-1.024 10.24-2.048 15.36-6.144 19.456-24.576 33.792-47.104 33.792-21.504 0-40.96-14.336-47.104-33.792-1.024-5.12-2.048-10.24-2.048-15.36-1.024-26.624 21.504-49.152 49.152-49.152m0-13.312c-34.816 0-62.464 27.648-62.464 62.464 0 6.144 1.024 13.312 3.072 19.456 8.192 25.6 32.768 43.008 59.392 43.008 27.648 0 51.2-17.408 59.392-44.032 2.048-6.144 3.072-12.288 3.072-19.456 0-32.768-28.672-61.44-62.464-61.44z" fill="#2B2F5A" p-id="16164"></path><path d="M535.552 133.12c-21.504 0-40.96-14.336-47.104-33.792-1.024-5.12-2.048-10.24-2.048-15.36 0-4.096 1.024-8.192 2.048-12.288-16.384 8.192-28.672 24.576-28.672 45.056 0 5.12 1.024 10.24 2.048 15.36 6.144 19.456 24.576 33.792 47.104 33.792 21.504 0 40.96-14.336 47.104-33.792 0-1.024 1.024-2.048 1.024-3.072-7.168 2.048-14.336 4.096-21.504 4.096z" fill="#055F3D" opacity=".5" p-id="16165"></path><path d="M620.544 686.08c-49.152 0-95.232-6.144-111.616-41.984-17.408 35.84-63.488 41.984-112.64 41.984h-30.72c-65.536 0-118.784-53.248-118.784-118.784V460.8c0-4.096 3.072-6.144 6.144-6.144h507.904c4.096 0 6.144 3.072 6.144 6.144v107.52c0 65.536-53.248 118.784-118.784 118.784h-27.648z" fill="#F2C2B3" p-id="16166"></path><path d="M762.88 460.8v107.52c0 61.44-50.176 111.616-111.616 111.616h-30.72c-61.44 0-111.616-8.192-111.616-69.632 0 61.44-50.176 69.632-111.616 69.632h-30.72c-61.44 0-111.616-50.176-111.616-111.616V460.8h507.904m0-13.312H254.976c-7.168 0-13.312 6.144-13.312 13.312v107.52c0 68.608 56.32 124.928 124.928 124.928h30.72c28.672 0 60.416-2.048 84.992-13.312 11.264-5.12 20.48-13.312 26.624-22.528 6.144 9.216 15.36 16.384 26.624 22.528 24.576 11.264 56.32 13.312 84.992 13.312h30.72c68.608 0 124.928-56.32 124.928-124.928V460.8c0-7.168-6.144-13.312-13.312-13.312z" fill="#2B2F5A" p-id="16167"></path><path d="M254.976 460.8h506.88v56.32H254.976z" fill="#E4B4A4" p-id="16168"></path><path d="M650.24 617.472h-30.72c-61.44 0-111.616-8.192-111.616-69.632 0 61.44-50.176 69.632-111.616 69.632h-30.72c-61.44 0-111.616-50.176-111.616-111.616v61.44c0 61.44 50.176 111.616 111.616 111.616h30.72c61.44 0 111.616-8.192 111.616-69.632 0 61.44 50.176 69.632 111.616 69.632h30.72c61.44 0 111.616-50.176 111.616-111.616v-61.44c1.024 61.44-50.176 111.616-111.616 111.616z" fill="#E4B4A4" p-id="16169"></path><path d="M362.496 583.68c-11.264 0-20.48-9.216-20.48-20.48s9.216-20.48 20.48-20.48 20.48 9.216 20.48 20.48-9.216 20.48-20.48 20.48z" fill="#DC2834" p-id="16170"></path><path d="M362.496 548.864c8.192 0 14.336 6.144 14.336 14.336 0 8.192-6.144 14.336-14.336 14.336-8.192 0-14.336-6.144-14.336-14.336 0-8.192 6.144-14.336 14.336-14.336m0-13.312c-15.36 0-27.648 12.288-27.648 27.648 0 15.36 12.288 27.648 27.648 27.648S389.12 578.56 389.12 563.2c0-15.36-12.288-27.648-26.624-27.648z" fill="#2B2F5A" p-id="16171"></path><path d="M655.36 583.68c-11.264 0-20.48-9.216-20.48-20.48s9.216-20.48 20.48-20.48 20.48 9.216 20.48 20.48-9.216 20.48-20.48 20.48z" fill="#DC2834" p-id="16172"></path><path d="M655.36 548.864c8.192 0 14.336 6.144 14.336 14.336 0 8.192-6.144 14.336-14.336 14.336-8.192 0-14.336-6.144-14.336-14.336 0-8.192 6.144-14.336 14.336-14.336m0-13.312c-15.36 0-27.648 12.288-27.648 27.648 0 15.36 12.288 27.648 27.648 27.648 15.36 0 27.648-12.288 27.648-27.648-1.024-15.36-13.312-27.648-27.648-27.648z" fill="#2B2F5A" p-id="16173"></path><path d="M243.712 492.544c-39.936 0-72.704-32.768-72.704-72.704 0-19.456 7.168-37.888 21.504-51.2 13.312-13.312 31.744-21.504 51.2-21.504h529.408c39.936 0 72.704 32.768 72.704 72.704 0 19.456-7.168 37.888-21.504 51.2-13.312 13.312-31.744 21.504-51.2 21.504H243.712z" fill="#CACFE5" p-id="16174"></path><path d="M773.12 354.304c35.84 0 65.536 29.696 65.536 65.536 0 18.432-7.168 34.816-19.456 46.08-12.288 12.288-28.672 19.456-46.08 19.456H243.712c-35.84 0-65.536-29.696-65.536-65.536 0-18.432 7.168-34.816 19.456-46.08 12.288-12.288 28.672-19.456 46.08-19.456h529.408m0-13.312H243.712c-21.504 0-40.96 8.192-56.32 23.552-15.36 15.36-23.552 34.816-23.552 56.32 0 44.032 35.84 78.848 78.848 78.848h529.408c21.504 0 40.96-8.192 56.32-23.552 15.36-15.36 23.552-34.816 23.552-56.32 0-44.032-34.816-78.848-78.848-78.848z" fill="#2B2F5A" p-id="16175"></path><path d="M773.12 354.304H243.712c-18.432 0-34.816 7.168-46.08 19.456-6.144 6.144-11.264 14.336-15.36 22.528 4.096-1.024 8.192-1.024 12.288-1.024h529.408c35.84 0 65.536 29.696 65.536 65.536 0 8.192-2.048 16.384-4.096 23.552 13.312-2.048 25.6-9.216 34.816-18.432 12.288-12.288 19.456-28.672 19.456-46.08-1.024-35.84-29.696-65.536-66.56-65.536z" fill="#EFEEF7" p-id="16176"></path><path d="M558.08 672.768s38.912-18.432 80.896 47.104c41.984 65.536 95.232 14.336 95.232 14.336s-97.28 154.624-216.064 6.144c-1.024 0-20.48-58.368 39.936-67.584z" fill="#CACFE5" p-id="16177"></path><path d="M459.776 672.768s-38.912-18.432-80.896 47.104c-41.984 65.536-95.232 14.336-95.232 14.336s97.28 154.624 216.064 6.144c0 0 19.456-58.368-39.936-67.584zM623.616 782.336c-38.912 0-75.776-22.528-111.616-67.584 0-1.024-1.024-1.024-1.024-2.048s-9.216-29.696 4.096-52.224c8.192-13.312 21.504-21.504 40.96-24.576 2.048-1.024 8.192-3.072 15.36-3.072 18.432 0 45.056 9.216 72.704 52.224 12.288 20.48 27.648 30.72 45.056 30.72 21.504 0 39.936-16.384 39.936-17.408 1.024-1.024 3.072-2.048 4.096-2.048 1.024 0 3.072 0 4.096 1.024 3.072 2.048 3.072 6.144 1.024 8.192-1.024 6.144-46.08 76.8-114.688 76.8z" fill="#CACFE5" p-id="16178"></path><path d="M571.392 641.024c15.36 0 40.96 7.168 66.56 49.152 16.384 25.6 34.816 33.792 50.176 33.792 24.576 0 45.056-18.432 45.056-18.432s-44.032 70.656-109.568 70.656c-31.744 0-67.584-16.384-106.496-64.512 0 0-19.456-58.368 39.936-67.584 1.024-1.024 6.144-3.072 14.336-3.072M571.392 627.712c-8.192 0-14.336 2.048-17.408 3.072-20.48 3.072-35.84 12.288-45.056 27.648-15.36 24.576-5.12 56.32-5.12 57.344 0 1.024 1.024 3.072 2.048 4.096C543.744 764.928 583.68 788.48 623.616 788.48c69.632 0 115.712-69.632 120.832-75.776 1.024-2.048 2.048-5.12 2.048-7.168 0-7.168-6.144-13.312-13.312-13.312-2.048 0-5.12 1.024-7.168 2.048l-1.024 1.024-1.024 1.024s-16.384 15.36-35.84 15.36c-14.336 0-27.648-9.216-38.912-27.648-28.672-47.104-58.368-56.32-77.824-56.32z" fill="#2B2F5A" p-id="16179"></path><path d="M393.216 782.336c-68.608 0-113.664-70.656-114.688-73.728-2.048-3.072-1.024-6.144 1.024-8.192 1.024-1.024 3.072-1.024 4.096-1.024 2.048 0 3.072 1.024 4.096 2.048 0 0 18.432 17.408 39.936 17.408 17.408 0 31.744-10.24 45.056-30.72 27.648-43.008 54.272-52.224 72.704-52.224 8.192 0 13.312 2.048 15.36 3.072 19.456 3.072 32.768 11.264 40.96 24.576 13.312 22.528 4.096 50.176 4.096 52.224 0 1.024-1.024 1.024-1.024 2.048-35.84 41.984-73.728 64.512-111.616 64.512z" fill="#CACFE5" p-id="16180"></path><path d="M445.44 641.024c8.192 0 14.336 2.048 14.336 2.048 60.416 9.216 39.936 67.584 39.936 67.584-38.912 48.128-74.752 64.512-106.496 64.512-65.536 0-109.568-70.656-109.568-70.656s19.456 18.432 45.056 18.432c16.384 0 33.792-8.192 50.176-33.792 25.6-40.96 51.2-48.128 66.56-48.128m0-13.312c-19.456 0-49.152 9.216-77.824 55.296-11.264 18.432-24.576 27.648-38.912 27.648-19.456 0-35.84-15.36-35.84-15.36-2.048-2.048-6.144-4.096-9.216-4.096-3.072 0-6.144 1.024-8.192 3.072-5.12 4.096-6.144 11.264-3.072 17.408 2.048 3.072 49.152 76.8 120.832 76.8 40.96 0 79.872-23.552 116.736-69.632 1.024-1.024 2.048-3.072 2.048-4.096 0-1.024 10.24-32.768-5.12-57.344-9.216-14.336-23.552-23.552-45.056-27.648-2.048-1.024-8.192-2.048-16.384-2.048z" fill="#2B2F5A" p-id="16181"></path><path d="M459.776 643.072S420.864 624.64 378.88 690.176s-95.232 14.336-95.232 14.336 23.552 37.888 61.44 57.344c7.168-5.12 15.36-13.312 22.528-24.576 41.984-65.536 80.896-47.104 80.896-47.104 26.624 4.096 36.864 17.408 40.96 30.72 3.072-4.096 6.144-7.168 10.24-12.288 0 2.048 19.456-56.32-39.936-65.536z" fill="#EFEEF7" p-id="16182"></path><path d="M558.08 643.072s38.912-18.432 80.896 47.104 95.232 14.336 95.232 14.336-23.552 37.888-61.44 57.344c-7.168-5.12-15.36-13.312-22.528-24.576-41.984-65.536-80.896-47.104-80.896-47.104-26.624 4.096-36.864 17.408-40.96 30.72-3.072-4.096-6.144-7.168-10.24-12.288-1.024 2.048-20.48-56.32 39.936-65.536z" fill="#EFEEF7" p-id="16183"></path><path d="M508.928 704.512c-30.72 0-56.32-25.6-56.32-56.32s25.6-56.32 56.32-56.32 56.32 25.6 56.32 56.32c-1.024 30.72-25.6 56.32-56.32 56.32z" fill="#DC2834" p-id="16184"></path><path d="M508.928 599.04c27.648 0 49.152 22.528 49.152 49.152 0 27.648-22.528 49.152-49.152 49.152-27.648 0-49.152-22.528-49.152-49.152-1.024-27.648 21.504-49.152 49.152-49.152m0-13.312c-34.816 0-62.464 27.648-62.464 62.464 0 34.816 27.648 62.464 62.464 62.464 34.816 0 62.464-27.648 62.464-62.464 0-34.816-28.672-62.464-62.464-62.464z" fill="#2B2F5A" p-id="16185"></path><path d="M508.928 655.36c-19.456 0-36.864-11.264-44.032-27.648-3.072 6.144-5.12 13.312-5.12 21.504 0 27.648 22.528 49.152 49.152 49.152 27.648 0 49.152-22.528 49.152-49.152 0-7.168-2.048-14.336-5.12-21.504-8.192 16.384-24.576 27.648-44.032 27.648z" fill="#B82125" opacity=".75" p-id="16186"></path><path d="M741.376 374.784l8.192-1.024" fill="#055F3D" p-id="16187"></path><path d="M741.376 380.928c-4.096 0-6.144-3.072-6.144-6.144 0-4.096 3.072-7.168 6.144-7.168h8.192c4.096 0 6.144 3.072 6.144 6.144 0 4.096-3.072 7.168-6.144 7.168h-8.192c1.024 0 0 0 0 0z" fill="#FFFFFF" p-id="16188"></path><path d="M645.12 375.808l58.368-1.024h9.216" fill="#055F3D" p-id="16189"></path><path d="M645.12 382.976c-4.096 0-6.144-3.072-6.144-6.144 0-4.096 3.072-7.168 6.144-7.168l68.608-1.024c4.096 0 6.144 3.072 6.144 6.144 0 4.096-3.072 7.168-6.144 7.168l-68.608 1.024z" fill="#FFFFFF" p-id="16190"></path><path d="M513.100291 95.582538a21.504 10.24 44.999 1 0 14.481294-14.481799 21.504 10.24 44.999 1 0-14.481294 14.481799Z" fill="#FFFFFF" opacity=".5" p-id="16191"></path><path d="M532.530798 119.412649a8.192 4.096 44.999 1 0 5.792518-5.79272 8.192 4.096 44.999 1 0-5.792518 5.79272Z" fill="#FFFFFF" opacity=".5" p-id="16192"></path><path d="MNaN NaNaNaN NaN NaN 1 0 NaN NaN NaN NaN NaN 1 0 NaN NaNZ" fill="#FFFFFF" opacity=".5" p-id="16193"></path><path d="MNaN NaNaNaN NaN NaN 1 0 NaN NaN NaN NaN NaN 1 0 NaN NaNZ" fill="#FFFFFF" opacity=".5" p-id="16194"></path><path d="MNaN NaNaNaN NaN NaN 1 0 NaN NaN NaN NaN NaN 1 0 NaN NaNZ" fill="#FFFFFF" opacity=".5" p-id="16195"></path><path d="MNaN NaNaNaN NaN NaN 1 0 NaN NaN NaN NaN NaN 1 0 NaN NaNZ" fill="#FFFFFF" opacity=".5" p-id="16196"></path><path d="MNaN NaNaNaN NaN NaN 1 0 NaN NaN NaN NaN NaN 1 0 NaN NaNZ" fill="#FFFFFF" opacity=".5" p-id="16197"></path><path d="MNaN NaNaNaN NaN NaN 1 0 NaN NaN NaN NaN NaN 1 0 NaN NaNZ" fill="#FFFFFF" opacity=".5" p-id="16198"></path><path d="M343.04 258.048c-2.048 2.048-1.024 1.024-3.072 4.096-1.024 1.024-1.024 2.048-2.048 2.048" fill="#055F3D" p-id="16199"></path><path d="M336.896 271.36c-2.048 0-3.072-1.024-4.096-2.048-3.072-2.048-3.072-6.144-1.024-9.216l3.072-4.096c0-1.024 1.024-1.024 2.048-2.048 2.048-3.072 7.168-3.072 9.216 0 3.072 2.048 3.072 7.168 0 9.216l-2.048 2.048-3.072 4.096c0 1.024-2.048 2.048-4.096 2.048z" fill="#FFFFFF" p-id="16200"></path><path d="M421.888 193.536s-31.744 17.408-65.536 51.2" fill="#055F3D" p-id="16201"></path><path d="M356.352 251.904c-2.048 0-3.072-1.024-5.12-2.048-3.072-3.072-2.048-7.168 0-9.216 34.816-33.792 65.536-51.2 67.584-52.224 3.072-2.048 7.168-1.024 9.216 3.072 2.048 3.072 1.024 7.168-3.072 9.216 0 0-30.72 17.408-64.512 50.176-1.024 0-3.072 1.024-4.096 1.024z" fill="#FFFFFF" p-id="16202"></path></svg>